<?xml version="1.0" encoding="UTF-8" standalone="no"?>
<!-- Created with sK1/UniConvertor (http://sk1project.org/) -->

<svg
   xmlns:dc="http://purl.org/dc/elements/1.1/"
   xmlns:cc="http://creativecommons.org/ns#"
   xmlns:rdf="http://www.w3.org/1999/02/22-rdf-syntax-ns#"
   xmlns:svg="http://www.w3.org/2000/svg"
   xmlns="http://www.w3.org/2000/svg"
   xmlns:sodipodi="http://sodipodi.sourceforge.net/DTD/sodipodi-0.dtd"
   xmlns:inkscape="http://www.inkscape.org/namespaces/inkscape"
   width="221.88191"
   height="84.837471"
   viewBox="0 0 177.50554 67.869974"
   id="svg2"
   version="1.1"
   inkscape:version="0.48.2 r9819"
   sodipodi:docname="Meijer_logo.svg"
   style="fill-rule:evenodd">
  <metadata
     id="metadata88">
    <rdf:RDF>
      <cc:Work
         rdf:about="">
        <dc:format>image/svg+xml</dc:format>
        <dc:type
           rdf:resource="http://purl.org/dc/dcmitype/StillImage" />
        <dc:title></dc:title>
      </cc:Work>
    </rdf:RDF>
  </metadata>
  <defs
     id="defs86" />
  <sodipodi:namedview
     pagecolor="#ffffff"
     bordercolor="#666666"
     borderopacity="1"
     objecttolerance="10"
     gridtolerance="10"
     guidetolerance="10"
     inkscape:pageopacity="0"
     inkscape:pageshadow="2"
     inkscape:window-width="1280"
     inkscape:window-height="714"
     id="namedview84"
     showgrid="false"
     fit-margin-top="0"
     fit-margin-left="0"
     fit-margin-right="0"
     fit-margin-bottom="0"
     inkscape:zoom="4.4675372"
     inkscape:cx="116.06478"
     inkscape:cy="42.253815"
     inkscape:window-x="-4"
     inkscape:window-y="-4"
     inkscape:window-maximized="1"
     inkscape:current-layer="svg2" />
  <path
     inkscape:connector-curvature="0"
     id="path36"
     d="m 99.2898,6.2999864 c 0,-1.64 -0.597,-3.032 -1.74,-4.225 -1.193,-1.143 -2.584,-1.73900001 -4.224,-1.73900001 -1.6905,0 -3.082,0.59600001 -4.2252,1.73900001 -1.1929,1.193 -1.7893,2.585 -1.7893,4.225 0,1.69 0.5964,3.082 1.7893,4.2739996 1.1432,1.144 2.5347,1.74 4.2252,1.74 1.64,0 3.031,-0.596 4.224,-1.74 1.143,-1.1919996 1.74,-2.5839996 1.74,-4.2739996"
     style="fill:#035fa0;stroke:none" />
  <path
     inkscape:connector-curvature="0"
     id="path38"
     d="m 115.9898,6.5979864 c 0,-1.69 -0.596,-3.081 -1.74,-4.224 -1.192,-1.193 -2.584,-1.79 -4.224,-1.79 -1.69,0 -3.082,0.597 -4.225,1.79 -1.193,1.143 -1.789,2.534 -1.789,4.224 0,1.64 0.596,3.082 1.789,4.2249996 1.143,1.193 2.535,1.79 4.225,1.79 1.64,0 3.032,-0.597 4.224,-1.79 1.144,-1.1429996 1.74,-2.5849996 1.74,-4.2249996"
     style="fill:#035fa0;stroke:none" />
  <path
     inkscape:connector-curvature="0"
     id="path72"
     d="m 43.6229,16.091986 c -1.491,-0.895 -3.4789,-1.342 -6.014,-1.342 -4.4733,0 -7.5546,1.988 -9.2942,5.914 -0.9445,-3.926 -3.6782,-5.914 -8.2009,-5.914 -4.2747,0 -7.3562,1.988 -9.195,5.914 l 0,-5.268 -10.0400597,0 0,38.122 10.6361597,0 0,-22.168 c 0,-3.23 0.2486,-5.467 0.845,-6.66 0.5468,-1.193 1.69,-1.739 3.3797,-1.739 1.3423,0 2.2369,0.397 2.5847,1.193 0.3977,0.745 0.5964,2.534 0.5964,5.268 l 0,24.106 10.6364,0 0,-22.168 c 0,-3.33 0.2486,-5.566 0.7455,-6.759 0.5466,-1.094 1.6402,-1.64 3.3302,-1.64 1.4411,0 2.2864,0.397 2.7337,1.242 0.3977,0.895 0.5964,2.733 0.5964,5.567 l 0,23.758 10.6365,0 0,-24.852 c 0,-4.373 -0.2985,-7.356 -0.8947,-8.847 -0.5468,-1.59 -1.5907,-2.833 -3.0818,-3.727"
     style="fill:#d23a43;stroke:none" />
  <path
     inkscape:connector-curvature="0"
     id="path74"
     d="m 63.0068,38.357986 0,-2.087 19.8811,0 c 0,-8.251 -1.4415,-13.867 -4.3736,-16.949 -2.8828,-3.032 -6.4613,-4.572 -10.7858,-4.572 -4.7713,0 -8.5981,1.739 -11.4809,5.218 -2.8332,3.479 -4.2747,8.5 -4.2747,15.11 0,5.815 1.3422,10.487 4.0258,14.016 2.7337,3.479 6.6603,5.219 11.7799,5.219 8.3994,0 13.4198,-4.424 15.1093,-13.321 l -9.5429,0 c -0.4969,3.927 -2.2864,5.865 -5.318,5.865 -1.4913,0 -2.7338,-0.546 -3.6287,-1.69 -0.9442,-1.192 -1.3915,-3.479 -1.3915,-6.809 l 0.0499,-8.3 c 0.0499,-5.517 1.69,-8.301 4.9204,-8.301 3.2805,0 4.871,2.436 4.871,7.257 l 0,1.044 -9.7914,0"
     style="fill:#d23a43;stroke:none" />
  <path
     inkscape:connector-curvature="0"
     id="path76"
     d="m 98.5938,53.517986 0,-38.122 -10.5866,0 0,38.122 10.5866,0"
     style="fill:#d23a43;stroke:none" />
  <path
     inkscape:connector-curvature="0"
     id="path78"
     d="m 115.9398,15.395986 -10.636,0 0,36.581 c 0,2.634 -0.199,4.374 -0.547,5.219 -0.397,0.745 -1.391,1.143 -2.932,1.143 l -1.442,-0.1 0,8.748 5.716,0.547 c 2.435,0 4.523,-0.547 6.163,-1.74 1.591,-1.143 2.585,-2.733 3.032,-4.672 0.398,-1.889 0.646,-4.871 0.646,-8.847 l 0,-36.879"
     style="fill:#d23a43;stroke:none" />
  <path
     inkscape:connector-curvature="0"
     id="path80"
     d="m 125.1348,19.967986 c -2.833,3.43 -4.274,8.45 -4.274,15.11 0,5.815 1.342,10.487 4.026,14.016 2.733,3.479 6.61,5.219 11.779,5.219 8.35,0 13.42,-4.424 15.06,-13.321 l -9.493,0 c -0.497,3.927 -2.286,5.865 -5.368,5.865 -1.491,0 -2.684,-0.546 -3.628,-1.69 -0.944,-1.192 -1.392,-3.479 -1.392,-6.809 l 0,-2.087 19.881,0 c 0,-8.251 -1.441,-13.867 -4.324,-16.949 -2.932,-3.032 -6.511,-4.572 -10.835,-4.572 -4.771,0 -8.598,1.739 -11.432,5.218 l 16.601,9.046 -0.05,1.044 -9.742,0 c 0,-5.517 1.641,-8.301 4.872,-8.301 3.28,0 4.92,2.436 4.92,7.257"
     style="fill:#d23a43;stroke:none" />
  <path
     inkscape:connector-curvature="0"
     id="path82"
     d="m 165.9408,15.395986 -9.394,0 0,38.122 10.636,0 0,-16.352 c 0,-7.804 2.536,-11.73 7.704,-11.73 l 1.74,0.149 0,-10.488 -1.789,-0.148 c -4.275,0 -7.256,3.23 -8.897,9.692 l 0,-9.245"
     style="fill:#d23a43;stroke:none" />
</svg>
