<?xml version="1.0" encoding="utf-8"?>
<!-- Generator: Adobe Illustrator 16.0.0, SVG Export Plug-In . SVG Version: 6.00 Build 0)  -->
<!DOCTYPE svg PUBLIC "-//W3C//DTD SVG 1.1//EN" "http://www.w3.org/Graphics/SVG/1.1/DTD/svg11.dtd">
<svg version="1.1" id="Layer_1" xmlns="http://www.w3.org/2000/svg" xmlns:xlink="http://www.w3.org/1999/xlink" x="0px" y="0px"
	 width="512px" height="512px" viewBox="0 0 512 512" enable-background="new 0 0 512 512" xml:space="preserve">
<g id="Layer_1_2_">
	<g id="Layer_1_1_">

			<g id="svg3354" xmlns:cc="http://creativecommons.org/ns#" xmlns:dc="http://purl.org/dc/elements/1.1/" xmlns:inkscape="http://www.inkscape.org/namespaces/inkscape" xmlns:sodipodi="http://sodipodi.sourceforge.net/DTD/sodipodi-0.dtd" xmlns:svg="http://www.w3.org/2000/svg" xmlns:rdf="http://www.w3.org/1999/02/22-rdf-syntax-ns#" sodipodi:docname="base_icon.svg" inkscape:version="0.91 r13725">

				<circle id="path3364" fill="#F7EB5C" cx="256.321" cy="256.064" r="256"/>
		</g>
	</g>
</g>
<g id="Layer_2">
	<g>
		<path fill="#282828" d="M256.324,36.973c-120.048,0-217.398,97.327-217.398,217.392c0,96.054,62.29,177.54,148.67,206.29
			c10.863,2.012,14.85-4.718,14.85-10.462c0-5.183-0.197-22.311-0.295-40.472c-60.475,13.148-73.237-25.65-73.237-25.65
			c-9.893-25.13-24.138-31.81-24.138-31.81c-19.728-13.493,1.483-13.22,1.483-13.22c21.832,1.533,33.328,22.408,33.328,22.408
			c19.385,33.23,50.857,23.625,63.26,18.07c1.955-14.048,7.587-23.646,13.803-29.074c-48.284-5.492-99.049-24.139-99.049-107.438
			c0-23.73,8.494-43.126,22.402-58.353c-2.257-5.478-9.696-27.583,2.109-57.53c0,0,18.253-5.843,59.794,22.286
			c17.346-4.819,35.944-7.231,54.419-7.316c18.471,0.085,37.083,2.496,54.458,7.316c41.498-28.129,59.723-22.286,59.723-22.286
			c11.833,29.946,4.395,52.052,2.138,57.53c13.935,15.226,22.372,34.623,22.372,58.353c0,83.503-50.856,101.883-99.267,107.27
			c7.798,6.742,14.745,19.975,14.745,40.254c0,29.088-0.253,52.502-0.253,59.66c0,5.787,3.917,12.564,14.935,10.434
			c86.33-28.778,148.542-110.241,148.542-206.261C473.716,134.3,376.383,36.973,256.324,36.973z"/>
		<path fill="#282828" d="M121.264,349.104c-0.478,1.083-2.18,1.408-3.727,0.661c-1.575-0.71-2.461-2.18-1.948-3.263
			c0.464-1.11,2.165-1.42,3.74-0.682C120.913,346.53,121.813,348.021,121.264,349.104L121.264,349.104z"/>
		<path fill="#282828" d="M130.074,358.927c-1.04,0.957-3.065,0.513-4.444-1.006c-1.42-1.519-1.688-3.544-0.633-4.521
			c1.069-0.957,3.031-0.507,4.458,1.006C130.876,355.938,131.157,357.949,130.074,358.927L130.074,358.927z"/>
		<path fill="#282828" d="M138.645,371.442c-1.336,0.928-3.516,0.063-4.858-1.87c-1.335-1.934-1.335-4.254,0.028-5.183
			c1.35-0.928,3.494-0.091,4.858,1.821C140.002,368.18,140.002,370.5,138.645,371.442L138.645,371.442z"/>
		<path fill="#282828" d="M150.387,383.543c-1.195,1.314-3.733,0.956-5.59-0.837c-1.898-1.751-2.426-4.239-1.237-5.555
			c1.209-1.314,3.762-0.942,5.632,0.837C151.084,379.739,151.653,382.242,150.387,383.543L150.387,383.543z"/>
		<path fill="#282828" d="M166.587,390.567c-0.527,1.701-2.975,2.475-5.435,1.751c-2.46-0.746-4.064-2.742-3.572-4.458
			c0.513-1.716,2.967-2.524,5.45-1.751C165.484,386.854,167.094,388.83,166.587,390.567L166.587,390.567z"/>
		<path fill="#282828" d="M184.376,391.868c0.063,1.793-2.025,3.276-4.612,3.312c-2.595,0.057-4.705-1.393-4.732-3.157
			c0-1.813,2.046-3.283,4.641-3.325C182.26,388.647,184.376,390.089,184.376,391.868L184.376,391.868z"/>
		<path fill="#282828" d="M200.935,389.049c0.31,1.75-1.491,3.543-4.058,4.021c-2.524,0.464-4.858-0.619-5.182-2.349
			c-0.31-1.793,1.519-3.593,4.035-4.057C198.305,386.222,200.604,387.27,200.935,389.049L200.935,389.049z"/>
	</g>
</g>
</svg>
