<?xml version="1.0" encoding="utf-8"?>
<!-- Generator: Adobe Illustrator 16.0.0, SVG Export Plug-In . SVG Version: 6.00 Build 0)  -->
<!DOCTYPE svg PUBLIC "-//W3C//DTD SVG 1.1//EN" "http://www.w3.org/Graphics/SVG/1.1/DTD/svg11.dtd">
<svg version="1.1" xmlns="http://www.w3.org/2000/svg" xmlns:xlink="http://www.w3.org/1999/xlink" x="0px" y="0px" width="512px"
	 height="512px" viewBox="0 0 64 64" enable-background="new 0 0 64 64" xml:space="preserve">
<g id="Layer_2_1_">
	<circle fill="#FFFFFF" cx="32" cy="32" r="32"/>
</g>
<g id="Layer_1">
	<g id="Layer_1_2_">
		<g id="Layer_1_1_">
			<g id="g">
				<rect x="6.789" y="-8.367" fill="none" width="50.5" height="74.617"/>
				<g>
					<path fill="#DD4B39" d="M33.001,62.322c1.876-1.528,2.813-3.467,2.813-5.815c0-0.95-0.164-1.813-0.488-2.587
						c-0.325-0.775-0.813-1.538-1.463-2.288c-0.649-0.75-1.5-1.524-2.549-2.325c-1.05-0.8-2.276-1.699-3.675-2.699
						c-0.3-0.051-0.563-0.073-0.788-0.073s-0.538,0-0.938,0c-0.15,0-0.5,0.012-1.05,0.036c-0.551,0.023-1.2,0.074-1.95,0.149
						s-1.55,0.199-2.4,0.375c-0.851,0.175-1.676,0.388-2.475,0.638c-0.401,0.149-0.963,0.389-1.688,0.713
						c-0.726,0.324-1.438,0.787-2.138,1.389c-0.701,0.602-1.313,1.352-1.837,2.25s-0.788,2.023-0.788,3.375
						c0,0.429,0.041,0.841,0.101,1.244c5.011,4.135,11.305,6.765,18.193,7.224C31.098,63.548,32.144,63.019,33.001,62.322z"/>
					<path fill="#DD4B39" d="M29.815,32.349c0.85-0.853,1.375-1.806,1.575-2.86c0.199-1.054,0.3-1.931,0.3-2.634
						c0-1.355-0.2-2.835-0.6-4.44c-0.4-1.605-1-3.11-1.8-4.516c-0.8-1.405-1.788-2.572-2.962-3.5
						c-1.175-0.929-2.539-1.393-4.087-1.393c-1.001,0-1.976,0.227-2.925,0.678c-0.95,0.452-1.725,1.054-2.325,1.806
						c-0.65,0.804-1.088,1.682-1.313,2.636c-0.225,0.954-0.338,1.931-0.338,2.935c0,1.255,0.188,2.66,0.563,4.215
						c0.375,1.557,0.949,3.011,1.725,4.365c0.775,1.354,1.75,2.496,2.925,3.423c1.173,0.929,2.56,1.393,4.161,1.393
						c0.949,0,1.887-0.2,2.813-0.604C28.452,33.454,29.215,32.952,29.815,32.349z"/>
				</g>
			</g>
		</g>
		<g>
			<path fill="#DD4B39" d="M61.815,20.288h-5.523v7.462h-3.417v-7.462h-7.5v-3.417h7.5v-6.246h2.967
				C49.984,4.108,41.492,0.008,32.04,0.008c-17.673,0-32,14.327-32,32c0,7.366,2.495,14.146,6.678,19.555
				c0.879-1.372,2.223-2.599,4.049-3.677c1.149-0.7,2.387-1.263,3.712-1.688c1.324-0.425,2.637-0.763,3.938-1.013
				c1.3-0.25,2.524-0.426,3.675-0.523c1.15-0.102,2.149-0.176,3-0.227c-0.551-0.699-1.063-1.438-1.537-2.213
				c-0.476-0.772-0.713-1.736-0.713-2.888c0-0.649,0.075-1.188,0.225-1.612s0.325-0.861,0.525-1.313c-0.4,0.05-0.8,0.088-1.2,0.111
				c-0.401,0.024-0.8,0.037-1.2,0.037c-2,0-3.776-0.338-5.325-1.013c-1.551-0.676-2.85-1.563-3.9-2.663
				c-1.05-1.099-1.85-2.362-2.4-3.787C9.014,27.67,8.74,26.233,8.74,24.782c0-1.75,0.399-3.513,1.2-5.288
				c0.799-1.773,2-3.361,3.6-4.762c2.149-1.75,4.412-2.875,6.788-3.375c2.374-0.5,4.586-0.75,6.637-0.75h15.45l-4.8,2.625h-4.651
				c0.45,0.352,0.976,0.814,1.575,1.39s1.174,1.277,1.725,2.104c0.551,0.826,1.024,1.789,1.426,2.891
				c0.399,1.102,0.602,2.354,0.602,3.755s-0.178,2.629-0.523,3.68c-0.352,1.053-0.824,1.991-1.427,2.817
				c-0.6,0.826-1.272,1.577-2.022,2.252c-0.75,0.677-1.526,1.314-2.325,1.915c-0.5,0.502-0.975,1.026-1.425,1.577
				c-0.45,0.551-0.675,1.253-0.675,2.104c0,0.852,0.225,1.516,0.675,1.99c0.45,0.477,0.875,0.891,1.275,1.238l2.7,2.104
				c0.799,0.701,1.587,1.403,2.361,2.104c0.773,0.701,1.451,1.451,2.025,2.256c0.573,0.8,1.036,1.699,1.389,2.701
				c0.349,1,0.522,2.151,0.522,3.455c0,1.752-0.425,3.479-1.272,5.183c-0.854,1.701-2.103,3.217-3.75,4.545
				c-0.249,0.2-0.526,0.384-0.795,0.572C51.297,62.359,64.04,48.675,64.04,32.008C64.04,27.869,63.246,23.918,61.815,20.288z"/>
			<path fill="#DD4B39" d="M56.292,16.871h3.945c-1.105-2.056-2.435-3.972-3.945-5.727V16.871z"/>
		</g>
	</g>
</g>
</svg>
