<?xml version="1.0" encoding="utf-8"?>
<!-- Generator: Adobe Illustrator 16.0.0, SVG Export Plug-In . SVG Version: 6.00 Build 0)  -->
<!DOCTYPE svg PUBLIC "-//W3C//DTD SVG 1.1//EN" "http://www.w3.org/Graphics/SVG/1.1/DTD/svg11.dtd">
<svg version="1.1" xmlns="http://www.w3.org/2000/svg" xmlns:xlink="http://www.w3.org/1999/xlink" x="0px" y="0px" width="512px"
	 height="512px" viewBox="0 0 64 64" enable-background="new 0 0 64 64" xml:space="preserve">
<g id="Layer_1">
	<g id="Layer_1_1_">
		<circle id="path3364" fill="#1C1C1C" cx="32.04" cy="32.008" r="32"/>
	</g>
</g>
<g id="Layer_3_1_">
	<g>
		<polygon fill="#FFFFFF" points="44.088,28.424 39.307,35.044 41.746,36.364 43.047,38.084 43.848,41.063 51.646,35.444
			48.768,33.904 46.986,31.624 		"/>
		<g id="XMLID_4_">
			<g>
				<path fill="#FFFFFF" d="M39.747,36.895c1.62,0.689,2.38,2.569,1.68,4.189c-0.689,1.62-2.56,2.38-4.18,1.69L39.747,36.895z"/>
				<polygon fill="#FFFFFF" points="39.760,36.901 37.260,42.774 10.290,31.935 12.790,26.064"/>
				<path fill="#FFFFFF" d="M8.627,27.744c0.69-1.62,2.57-2.37,4.19-1.68l-2.51,5.87C8.687,31.244,7.937,29.364,8.627,27.744z"/>
			</g>
		</g>
	</g>
	<g id="XMLID_1_">
		<g>
			<path fill="#FFFFFF" d="M14.935,28.807c0-2.14-1.73-3.87-3.87-3.87c-2.14,0-3.87,1.73-3.87,3.87c0,2.14,1.73,3.87,3.87,3.87
				C13.205,32.677,14.935,30.947,14.935,28.807z M10.955,23.427c2.97,0,5.38,2.41,5.38,5.38c0,2.97-2.41,5.38-5.38,5.38
				c-2.97,0-5.38-2.41-5.38-5.38C5.575,25.837,7.985,23.427,10.955,23.427z"/>
		</g>
	</g>
	<g id="XMLID_2_">
		<g>
			<path fill="#FFFFFF" d="M38.996,43.933c2.14,0,3.87-1.729,3.87-3.87c0-2.14-1.73-3.87-3.87-3.87c-2.141,0-3.87,1.73-3.87,3.87
				C35.126,42.203,36.855,43.933,38.996,43.933z M39.436,34.713c2.71,0.27,4.83,2.569,4.83,5.35c0,0.23-0.01,0.46-0.04,0.69
				c-0.34,2.64-2.6,4.689-5.34,4.689c-2.97,0-5.38-2.41-5.38-5.38s2.41-5.38,5.38-5.38C39.076,34.683,39.256,34.692,39.436,34.713z"
				/>
		</g>
	</g>
	<g id="XMLID_3_">
		<g>
			<path fill="#FFFFFF" d="M51.189,35.828c-4,0-7.36-3.25-7.36-7.25s3.36-7.25,7.36-7.25s7.25,3.25,7.25,7.25
				S55.189,35.828,51.189,35.828z M55.06,28.578c0-2.14-1.73-3.87-3.87-3.87c-2.141,0-3.87,1.73-3.87,3.87
				c0,2.14,1.729,3.87,3.87,3.87C53.329,32.448,55.06,30.718,55.06,28.578z"/>
		</g>
	</g>
	<circle fill="#FFFFFF" cx="51.189" cy="28.578" r="2.6"/>
</g>
</svg>
