<?xml version="1.0" encoding="utf-8"?>
<!-- Generator: Adobe Illustrator 16.0.0, SVG Export Plug-In . SVG Version: 6.00 Build 0)  -->
<!DOCTYPE svg PUBLIC "-//W3C//DTD SVG 1.1//EN" "http://www.w3.org/Graphics/SVG/1.1/DTD/svg11.dtd">
<svg version="1.1" id="Layer_1" xmlns="http://www.w3.org/2000/svg" xmlns:xlink="http://www.w3.org/1999/xlink" x="0px" y="0px"
	 width="512px" height="512px" viewBox="0 0 64 64" enable-background="new 0 0 64 64" xml:space="preserve">
<g id="Layer_1_1_">

		<g id="svg3354" sodipodi:docname="base_icon.svg" inkscape:version="0.91 r13725" xmlns:dc="http://purl.org/dc/elements/1.1/" xmlns:inkscape="http://www.inkscape.org/namespaces/inkscape" xmlns:sodipodi="http://sodipodi.sourceforge.net/DTD/sodipodi-0.dtd" xmlns:svg="http://www.w3.org/2000/svg" xmlns:rdf="http://www.w3.org/1999/02/22-rdf-syntax-ns#" xmlns:cc="http://creativecommons.org/ns#">

			<sodipodi:namedview  inkscape:document-units="px" inkscape:pageshadow="2" inkscape:snap-others="true" inkscape:window-x="0" inkscape:window-height="1016" inkscape:window-width="1920" inkscape:window-maximized="1" inkscape:window-y="27" inkscape:pageopacity="0.0" inkscape:grid-bbox="true" inkscape:current-layer="layer1" showgrid="true" showguides="false" inkscape:cy="37.812701" inkscape:cx="34.454658" inkscape:zoom="12.65" borderopacity="1.0" bordercolor="#666666" pagecolor="#ffffff" id="base">
			<inkscape:grid  type="xygrid" id="grid3362"></inkscape:grid>
		</sodipodi:namedview>
		<g id="layer1" inkscape:groupmode="layer" inkscape:label="Layer 1">
			<circle id="path3364" fill="#55ACEE" cx="32.04" cy="32.008" r="32"/>
		</g>
	</g>
</g>
<g id="bird_1_">
	<g id="bird">
		<path fill="#2E2E2E" d="M32.7,26.128c-1.513-6.972,6.847-12.394,12.644-6.753c2.547-0.438,4.672-1.781,4.672-1.781
			s-0.48,2.252-3.141,4.047c0.859,0.105,4.148-1.125,4.148-1.125s-1.356,2.164-3.668,3.852C47.867,41.311,30.067,52.277,15,43.061
			c3.438,0.394,7.735-0.498,10.891-3.076c0,0-5.047,0.125-6.891-5.141c0,0,1.953,0.313,3.281-0.141
			c-1.547-0.234-5.891-2.219-5.862-7.305c0,0,1.915,0.915,3.24,0.88c-0.292-0.266-5.359-3.766-2.2-9.88
			C17.458,18.399,22.601,25.579,32.7,26.128z"/>
		<path fill="#2E2E2E" d="M51.584,28.723"/>
	</g>
</g>
</svg>
